<svg width="20" height="16" viewBox="0 0 20 16" fill="none" xmlns="http://www.w3.org/2000/svg">
<path fill-rule="evenodd" clip-rule="evenodd" d="M2.81541 2.58333C2.93828 2.43143 3.12578 2.33325 3.33344 2.33325H16.6668C16.8744 2.33325 17.0619 2.43143 17.1848 2.58333L10.0001 7.61262L2.81541 2.58333ZM0.666832 2.982C0.666661 2.99207 0.666641 3.00213 0.666773 3.01219V12.9999C0.666773 14.4689 1.86449 15.6666 3.33344 15.6666H16.6668C18.1357 15.6666 19.3334 14.4689 19.3334 12.9999V3.0122C19.3336 3.00213 19.3336 2.99206 19.3334 2.98198C19.3237 1.52123 18.1297 0.333252 16.6668 0.333252H3.33344C1.87047 0.333252 0.676525 1.52124 0.666832 2.982ZM17.3334 4.9206V12.9999C17.3334 13.3643 17.0312 13.6666 16.6668 13.6666H3.33344C2.96906 13.6666 2.66677 13.3643 2.66677 12.9999V4.92059L9.42664 9.6525C9.77096 9.89353 10.2292 9.89353 10.5736 9.6525L17.3334 4.9206Z" fill="white"/>
</svg>
